<svg xmlns="http://www.w3.org/2000/svg" viewBox="0 0 860 420" width="860" height="420"><rect x="0" y="0" width="100%" height="100%" fill="#ffffff"/><text x="70" y="18" font-family="system-ui, sans-serif" font-size="18" font-weight="700" fill="#15212b">AI Labor: gpt-4o, disabled, AB only</text><line x1="70" y1="364.0" x2="836" y2="364.0" stroke="#e5edf3" stroke-width="1"/><text x="56" y="368.0" text-anchor="end" font-family="system-ui, sans-serif" font-size="11" fill="#526272">0.00</text><line x1="70" y1="280.0" x2="836" y2="280.0" stroke="#e5edf3" stroke-width="1"/><text x="56" y="284.0" text-anchor="end" font-family="system-ui, sans-serif" font-size="11" fill="#526272">0.25</text><line x1="70" y1="196.0" x2="836" y2="196.0" stroke="#e5edf3" stroke-width="1"/><text x="56" y="200.0" text-anchor="end" font-family="system-ui, sans-serif" font-size="11" fill="#526272">0.50</text><line x1="70" y1="112.0" x2="836" y2="112.0" stroke="#e5edf3" stroke-width="1"/><text x="56" y="116.0" text-anchor="end" font-family="system-ui, sans-serif" font-size="11" fill="#526272">0.75</text><line x1="70" y1="28.0" x2="836" y2="28.0" stroke="#e5edf3" stroke-width="1"/><text x="56" y="32.0" text-anchor="end" font-family="system-ui, sans-serif" font-size="11" fill="#526272">1.00</text><line x1="70.0" y1="28" x2="70.0" y2="364" stroke="#f3f6f9" stroke-width="1"/><text x="70.0" y="396" text-anchor="middle" font-family="system-ui, sans-serif" font-size="11" fill="#526272">$25k</text><line x1="133.83333333333331" y1="28" x2="133.83333333333331" y2="364" stroke="#f3f6f9" stroke-width="1"/><text x="133.83333333333331" y="396" text-anchor="middle" font-family="system-ui, sans-serif" font-size="11" fill="#526272">$35k</text><line x1="197.66666666666666" y1="28" x2="197.66666666666666" y2="364" stroke="#f3f6f9" stroke-width="1"/><text x="197.66666666666666" y="396" text-anchor="middle" font-family="system-ui, sans-serif" font-size="11" fill="#526272">$45k</text><line x1="261.5" y1="28" x2="261.5" y2="364" stroke="#f3f6f9" stroke-width="1"/><text x="261.5" y="396" text-anchor="middle" font-family="system-ui, sans-serif" font-size="11" fill="#526272">$55k</text><line x1="325.3333333333333" y1="28" x2="325.3333333333333" y2="364" stroke="#f3f6f9" stroke-width="1"/><text x="325.3333333333333" y="396" text-anchor="middle" font-family="system-ui, sans-serif" font-size="11" fill="#526272">$65k</text><line x1="389.1666666666667" y1="28" x2="389.1666666666667" y2="364" stroke="#f3f6f9" stroke-width="1"/><text x="389.1666666666667" y="396" text-anchor="middle" font-family="system-ui, sans-serif" font-size="11" fill="#526272">$75k</text><line x1="453.0" y1="28" x2="453.0" y2="364" stroke="#f3f6f9" stroke-width="1"/><text x="453.0" y="396" text-anchor="middle" font-family="system-ui, sans-serif" font-size="11" fill="#526272">$85k</text><line x1="516.8333333333334" y1="28" x2="516.8333333333334" y2="364" stroke="#f3f6f9" stroke-width="1"/><text x="516.8333333333334" y="396" text-anchor="middle" font-family="system-ui, sans-serif" font-size="11" fill="#526272">$95k</text><line x1="580.6666666666666" y1="28" x2="580.6666666666666" y2="364" stroke="#f3f6f9" stroke-width="1"/><text x="580.6666666666666" y="396" text-anchor="middle" font-family="system-ui, sans-serif" font-size="11" fill="#526272">$105k</text><line x1="644.5" y1="28" x2="644.5" y2="364" stroke="#f3f6f9" stroke-width="1"/><text x="644.5" y="396" text-anchor="middle" font-family="system-ui, sans-serif" font-size="11" fill="#526272">$115k</text><line x1="708.3333333333334" y1="28" x2="708.3333333333334" y2="364" stroke="#f3f6f9" stroke-width="1"/><text x="708.3333333333334" y="396" text-anchor="middle" font-family="system-ui, sans-serif" font-size="11" fill="#526272">$125k</text><line x1="772.1666666666666" y1="28" x2="772.1666666666666" y2="364" stroke="#f3f6f9" stroke-width="1"/><text x="772.1666666666666" y="396" text-anchor="middle" font-family="system-ui, sans-serif" font-size="11" fill="#526272">$135k</text><line x1="836.0" y1="28" x2="836.0" y2="364" stroke="#f3f6f9" stroke-width="1"/><text x="836.0" y="396" text-anchor="middle" font-family="system-ui, sans-serif" font-size="11" fill="#526272">$145k</text><line x1="70" y1="364" x2="836" y2="364" stroke="#9fb3c8" stroke-width="1.2"/><line x1="70" y1="28" x2="70" y2="364" stroke="#9fb3c8" stroke-width="1.2"/><text x="430.0" y="414" text-anchor="middle" font-family="system-ui, sans-serif" font-size="12" fill="#526272">Savings per eliminated role ($)</text><text x="18" y="196.0" transform="rotate(-90 18 196.0)" text-anchor="middle" font-family="system-ui, sans-serif" font-size="12" fill="#526272">P(event)</text><line x1="70" y1="409" x2="90" y2="409" stroke="#264653" stroke-width="3"/><text x="96" y="413" font-family="system-ui, sans-serif" font-size="12" fill="#526272">Baseline</text><line x1="220" y1="409" x2="240" y2="409" stroke="#6c8ead" stroke-width="3"/><text x="246" y="413" font-family="system-ui, sans-serif" font-size="12" fill="#526272">Placebo</text><line x1="370" y1="409" x2="390" y2="409" stroke="#d97706" stroke-width="3"/><text x="396" y="413" font-family="system-ui, sans-serif" font-size="12" fill="#526272">Reflection</text><line x1="520" y1="409" x2="540" y2="409" stroke="#9b2226" stroke-width="3"/><text x="546" y="413" font-family="system-ui, sans-serif" font-size="12" fill="#526272">Constitution</text><polyline points="69.99999999999996,347.16442996627853 77.35751227690074,342.0560015305156 85.05423909315274,335.81970034019685 93.10581977076748,328.3381424008893 101.52861467512312,319.51786584547983 110.3397384583167,309.29912085219274 119.55709483519095,297.6648780320928 129.19941296268672,284.6480882362043 139.28628549645452,270.3362681783837 149.83820840204046,254.87265232537203 160.87662260155548,238.45343509601435 172.4239575404357,221.32100149906915 184.50367676283588,203.75346442179222 197.1403255882453,186.05123707796128 210.3595809862204,168.5217114861641 224.1883037505578,151.4633377553074 238.6545930789427,135.1504705654328 253.78784366895485,119.82025760744598 269.6188054464692,105.66260387364056 286.1796460477939,92.81389189462237 303.50401618252965,81.35472329741023 321.6271180099386,71.31152980836725 340.5857766677862,62.66153686648904 360.4185150989719,55.34029294717164 381.1656323280197,49.25082713941927 402.8692853464536,44.273471081719585 425.57357477347375,40.275465356714676 449.3246344659609,37.11963754589223 474.1707252599231,34.67165471790165 500.1623330338293,32.80558179769969 527.3522712931231,31.40768849362442 555.7957884843273,30.3786192377707 585.5506802568334,29.634160997274204 616.6774069004446,29.104910551627906 649.2392161973424,28.73516132902406 683.3022719380615,28.4813105817206 718.9357883626533,28.310043161814775 756.2121708001713,28.196490795450607 795.207162792295,28.122505955280168 836.0000000000007,28.075134753829076" fill="none" stroke="#264653" stroke-width="3" stroke-linecap="round" stroke-linejoin="round"/><circle cx="70.0" cy="330.40000000000003" r="4.2" fill="#264653" stroke="#ffffff" stroke-width="1.2"/><circle cx="133.83333333333331" cy="263.2" r="4.2" fill="#264653" stroke="#ffffff" stroke-width="1.2"/><circle cx="197.66666666666666" cy="196.0" r="4.2" fill="#264653" stroke="#ffffff" stroke-width="1.2"/><circle cx="261.5" cy="196.0" r="4.2" fill="#264653" stroke="#ffffff" stroke-width="1.2"/><circle cx="325.3333333333333" cy="61.599999999999994" r="4.2" fill="#264653" stroke="#ffffff" stroke-width="1.2"/><circle cx="389.1666666666667" cy="28.0" r="4.2" fill="#264653" stroke="#ffffff" stroke-width="1.2"/><circle cx="453.0" cy="28.0" r="4.2" fill="#264653" stroke="#ffffff" stroke-width="1.2"/><circle cx="516.8333333333334" cy="28.0" r="4.2" fill="#264653" stroke="#ffffff" stroke-width="1.2"/><circle cx="580.6666666666666" cy="28.0" r="4.2" fill="#264653" stroke="#ffffff" stroke-width="1.2"/><circle cx="644.5" cy="28.0" r="4.2" fill="#264653" stroke="#ffffff" stroke-width="1.2"/><circle cx="708.3333333333334" cy="28.0" r="4.2" fill="#264653" stroke="#ffffff" stroke-width="1.2"/><circle cx="772.1666666666666" cy="28.0" r="4.2" fill="#264653" stroke="#ffffff" stroke-width="1.2"/><circle cx="836.0" cy="28.0" r="4.2" fill="#264653" stroke="#ffffff" stroke-width="1.2"/><polyline points="69.99999999999996,357.26565653394226 77.35751227690074,354.1844093690488 85.05423909315274,350.0132060466738 93.10581977076748,344.50957845582866 101.52861467512312,337.4319201443052 110.3397384583167,328.56070657800797 119.55709483519095,317.7231998566766 129.19941296268672,304.81907251060585 139.28628549645452,289.84358991545247 149.83820840204046,272.90466089199566 160.87662260155548,254.23037460461353 172.4239575404357,234.16464177470726 184.50367676283588,213.15014515137358 197.1403255882453,191.69971955208382 210.3595809862204,170.35916048143216 224.1883037505578,149.66591409177886 238.6545930789427,130.1088157331297 253.78784366895485,112.09386152062265 269.6188054464692,95.91995786463224 286.1796460477939,81.76692611917593 303.50401618252965,69.6960986794848 321.6271180099386,59.662019495181646 340.5857766677862,51.532386934809196 360.4185150989719,45.11265036201017 381.1656323280197,40.1716329837047 402.8692853464536,36.46509527992487 425.57357477347375,33.75507018425269 449.3246344659609,31.823853372825848 474.1707252599231,30.48250507089626 500.1623330338293,29.57446527630323 527.3522712931231,28.975335418225377 555.7957884843273,28.59004360263826 585.5506802568334,28.348546838574208 616.6774069004446,28.20101507589505 649.2392161973424,28.11317101576708 683.3022719380615,28.062191947670712 718.9357883626533,28.033356680896674 756.2121708001713,28.017459921146724 795.207162792295,28.008918192559083 836.0000000000007,28.00444481651781" fill="none" stroke="#6c8ead" stroke-width="3" stroke-linecap="round" stroke-linejoin="round"/><circle cx="70.0" cy="330.40000000000003" r="4.2" fill="#6c8ead" stroke="#ffffff" stroke-width="1.2"/><circle cx="133.83333333333331" cy="330.40000000000003" r="4.2" fill="#6c8ead" stroke="#ffffff" stroke-width="1.2"/><circle cx="197.66666666666666" cy="196.0" r="4.2" fill="#6c8ead" stroke="#ffffff" stroke-width="1.2"/><circle cx="261.5" cy="162.4" r="4.2" fill="#6c8ead" stroke="#ffffff" stroke-width="1.2"/><circle cx="325.3333333333333" cy="28.0" r="4.2" fill="#6c8ead" stroke="#ffffff" stroke-width="1.2"/><circle cx="389.1666666666667" cy="28.0" r="4.2" fill="#6c8ead" stroke="#ffffff" stroke-width="1.2"/><circle cx="453.0" cy="28.0" r="4.2" fill="#6c8ead" stroke="#ffffff" stroke-width="1.2"/><circle cx="516.8333333333334" cy="28.0" r="4.2" fill="#6c8ead" stroke="#ffffff" stroke-width="1.2"/><circle cx="580.6666666666666" cy="28.0" r="4.2" fill="#6c8ead" stroke="#ffffff" stroke-width="1.2"/><circle cx="644.5" cy="28.0" r="4.2" fill="#6c8ead" stroke="#ffffff" stroke-width="1.2"/><circle cx="708.3333333333334" cy="28.0" r="4.2" fill="#6c8ead" stroke="#ffffff" stroke-width="1.2"/><circle cx="772.1666666666666" cy="28.0" r="4.2" fill="#6c8ead" stroke="#ffffff" stroke-width="1.2"/><circle cx="836.0" cy="28.0" r="4.2" fill="#6c8ead" stroke="#ffffff" stroke-width="1.2"/><polyline points="69.99999999999996,364.0 77.35751227690074,364.0 85.05423909315274,364.0 93.10581977076748,364.0 101.52861467512312,364.0 110.3397384583167,364.0 119.55709483519095,364.0 129.19941296268672,363.9999999999991 139.28628549645452,363.99999999995606 149.83820840204046,363.99999999831823 160.87662260155548,363.99999994996836 172.4239575404357,363.99999884178345 184.50367676283588,363.999979116841 197.1403255882453,363.9997064071707 210.3595809862204,363.99677712146877 224.1883037505578,363.9723263147626 238.6545930789427,363.81369610137415 253.78784366895485,363.0136293638202 269.6188054464692,359.87605571897427 286.1796460477939,350.3071900280482 303.50401618252965,327.6092212168859 321.6271180099386,285.72766164212726 340.5857766677862,225.6097288763764 360.4185150989719,158.4742240700224 381.1656323280197,100.14661230725355 402.8692853464536,60.72255371066207 425.57357477347375,39.992987474042465 449.3246344659609,31.51440688541915 474.1707252599231,28.81723064329211 500.1623330338293,28.14998426864714 527.3522712931231,28.02163856874637 555.7957884843273,28.002446847636943 585.5506802568334,28.0002163743134 616.6774069004446,28.000014937322725 649.2392161973424,28.00000080393095 683.3022719380615,28.000000033695724 718.9357883626533,28.000000001098925 756.2121708001713,28.000000000027867 795.207162792295,28.00000000000056 836.0000000000007,28.0" fill="none" stroke="#d97706" stroke-width="3" stroke-linecap="round" stroke-linejoin="round"/><circle cx="70.0" cy="364.0" r="4.2" fill="#d97706" stroke="#ffffff" stroke-width="1.2"/><circle cx="133.83333333333331" cy="364.0" r="4.2" fill="#d97706" stroke="#ffffff" stroke-width="1.2"/><circle cx="197.66666666666666" cy="364.0" r="4.2" fill="#d97706" stroke="#ffffff" stroke-width="1.2"/><circle cx="261.5" cy="364.0" r="4.2" fill="#d97706" stroke="#ffffff" stroke-width="1.2"/><circle cx="325.3333333333333" cy="263.2" r="4.2" fill="#d97706" stroke="#ffffff" stroke-width="1.2"/><circle cx="389.1666666666667" cy="95.19999999999999" r="4.2" fill="#d97706" stroke="#ffffff" stroke-width="1.2"/><circle cx="453.0" cy="28.0" r="4.2" fill="#d97706" stroke="#ffffff" stroke-width="1.2"/><circle cx="516.8333333333334" cy="28.0" r="4.2" fill="#d97706" stroke="#ffffff" stroke-width="1.2"/><circle cx="580.6666666666666" cy="28.0" r="4.2" fill="#d97706" stroke="#ffffff" stroke-width="1.2"/><circle cx="644.5" cy="28.0" r="4.2" fill="#d97706" stroke="#ffffff" stroke-width="1.2"/><circle cx="708.3333333333334" cy="28.0" r="4.2" fill="#d97706" stroke="#ffffff" stroke-width="1.2"/><circle cx="772.1666666666666" cy="28.0" r="4.2" fill="#d97706" stroke="#ffffff" stroke-width="1.2"/><circle cx="836.0" cy="28.0" r="4.2" fill="#d97706" stroke="#ffffff" stroke-width="1.2"/><polyline points="69.99999999999996,363.86008860356634 77.35751227690074,363.7268777147984 85.05423909315274,363.4845856245832 93.10581977076748,363.0595349425794 101.52861467512312,362.34034391142876 110.3397384583167,361.1666632157276 119.55709483519095,359.3192761596351 129.19941296268672,356.51469414744963 139.28628549645452,352.40810952871044 149.83820840204046,346.6085386958446 160.87662260155548,338.70878690853704 172.4239575404357,328.33031066860315 184.50367676283588,315.17938410834296 197.1403255882453,299.1069461584894 210.3595809862204,280.1612815122046 224.1883037505578,258.6215322012635 238.6545930789427,235.00184312897835 253.78784366895485,210.0208064526911 269.6188054464692,184.53786853244327 286.1796460477939,159.46573469523642 303.50401618252965,135.67346589375626 321.6271180099386,113.8972121560893 340.5857766677862,94.67367888408225 360.4185150989719,78.30604234495424 381.1656323280197,64.86473792743104 402.8692853464536,54.218417981817325 425.57357477347375,46.08524101731258 449.3246344659609,40.09252778410742 474.1707252599231,35.83370779552105 500.1623330338293,32.914550301717874 527.3522712931231,30.9846798340983 555.7957884843273,29.754124593256545 585.5506802568334,28.99733297639716 616.6774069004446,28.54842877217173 649.2392161973424,28.29160624995324 683.3022719380615,28.149891674289528 718.9357883626533,28.074469714183074 756.2121708001713,28.03575439144079 795.207162792295,28.016586708492227 836.0000000000007,28.007433825769663" fill="none" stroke="#9b2226" stroke-width="3" stroke-linecap="round" stroke-linejoin="round"/><circle cx="70.0" cy="364.0" r="4.2" fill="#9b2226" stroke="#ffffff" stroke-width="1.2"/><circle cx="133.83333333333331" cy="364.0" r="4.2" fill="#9b2226" stroke="#ffffff" stroke-width="1.2"/><circle cx="197.66666666666666" cy="229.6" r="4.2" fill="#9b2226" stroke="#ffffff" stroke-width="1.2"/><circle cx="261.5" cy="263.2" r="4.2" fill="#9b2226" stroke="#ffffff" stroke-width="1.2"/><circle cx="325.3333333333333" cy="128.8" r="4.2" fill="#9b2226" stroke="#ffffff" stroke-width="1.2"/><circle cx="389.1666666666667" cy="61.599999999999994" r="4.2" fill="#9b2226" stroke="#ffffff" stroke-width="1.2"/><circle cx="453.0" cy="28.0" r="4.2" fill="#9b2226" stroke="#ffffff" stroke-width="1.2"/><circle cx="516.8333333333334" cy="28.0" r="4.2" fill="#9b2226" stroke="#ffffff" stroke-width="1.2"/><circle cx="580.6666666666666" cy="28.0" r="4.2" fill="#9b2226" stroke="#ffffff" stroke-width="1.2"/><circle cx="644.5" cy="28.0" r="4.2" fill="#9b2226" stroke="#ffffff" stroke-width="1.2"/><circle cx="708.3333333333334" cy="28.0" r="4.2" fill="#9b2226" stroke="#ffffff" stroke-width="1.2"/><circle cx="772.1666666666666" cy="28.0" r="4.2" fill="#9b2226" stroke="#ffffff" stroke-width="1.2"/><circle cx="836.0" cy="28.0" r="4.2" fill="#9b2226" stroke="#ffffff" stroke-width="1.2"/></svg>